<svg xmlns="http://www.w3.org/2000/svg" width="650" height="236" viewBox="0 0 650 236">
  <g id="curly_med_dots" transform="translate(2 2)">
    <g id="Group_33" data-name="Group 33" transform="translate(-2 -2)">
      <g id="Group_34" data-name="Group 34" transform="translate(7.829 7.548)">
        <path id="Path_21" data-name="Path 21" d="M98.827,74.384S109.489,36.4,72.84,29.739,22.142,42.378,16.2,56.727C9.034,74.053,5.877,111.365,29.2,125.69c22.46,13.8,56.969,50.639,182.9,45.31s211.15-34.574,279.853-83.289c36.647-25.987,46.643,35.314-4,60.633" transform="translate(6.574 23.538)" fill="none" stroke="#fff" stroke-miterlimit="10" stroke-width="4"/>
        <path id="Path_22" data-name="Path 22" d="M69.13,90.026S73.96,47.3,48.817,68.043C32.281,81.686,41.144,116.177,127.1,115.6s159.808-13.079,192.233-25.237C351.314,78.366,456.259,22.728,484.245,14.4c0,0,51.972-17.324,69.3,41.978s-43.309,93.283-82.391,99.468" transform="translate(36.271 7.896)" fill="none" stroke="#fff" stroke-miterlimit="10" stroke-width="4"/>
        <path id="Path_23" data-name="Path 23" d="M62.668,56.342S30.484,40.09,35.233,86.068s89.2,43.227,112.69,44.225,135.956-12.822,171.66-25.737C354.814,91.814,492.26,22.862,497.822,21.8c0,0,24.3-15.2,45.642,33.781,20.28,46.543-36.375,72.146-52.867,86.39" transform="translate(29.356 15.103)" fill="none" stroke="#fff" stroke-miterlimit="10" stroke-width="4"/>
        <path id="Path_24" data-name="Path 24" d="M528.791,107.041s14.153-9.636,4.786-43.6c0,0-15.326-35.357-29.614-24.778,0,0-88.656,42.434-95.321,45.433s-21.654,8.7-21.654,8.7c-75.137,33.043-103.164,38.326-135.905,43.99-35.151,6.079-74.626,6.066-81.289,5.662-20.614-1.245-102.972-7.994-135.622-42.2C-4.3,59.94,59.018,37.731,59.018,37.731" transform="translate(16.924 31.485)" fill="none" stroke="#fff" stroke-miterlimit="10" stroke-width="4"/>
        <circle id="Ellipse_13" data-name="Ellipse 13" cx="2.999" cy="2.999" r="2.999" transform="translate(117.605 82.238)" fill="none" stroke="#fff" stroke-miterlimit="10" stroke-width="4"/>
        <circle id="Ellipse_14" data-name="Ellipse 14" cx="2.999" cy="2.999" r="2.999" transform="translate(114.606 53.92)" fill="none" stroke="#fff" stroke-miterlimit="10" stroke-width="4"/>
        <circle id="Ellipse_15" data-name="Ellipse 15" cx="2.999" cy="2.999" r="2.999" transform="translate(85.955 37.594)" fill="none" stroke="#fff" stroke-miterlimit="10" stroke-width="4"/>
        <circle id="Ellipse_16" data-name="Ellipse 16" cx="2.999" cy="2.999" r="2.999" transform="translate(54.638 34.595)" fill="none" stroke="#fff" stroke-miterlimit="10" stroke-width="4"/>
        <circle id="Ellipse_17" data-name="Ellipse 17" cx="2.999" cy="2.999" r="2.999" transform="translate(25.986 41.926)" fill="none" stroke="#fff" stroke-miterlimit="10" stroke-width="4"/>
        <circle id="Ellipse_18" data-name="Ellipse 18" cx="2.999" cy="2.999" r="2.999" transform="translate(8.663 63.58)" fill="none" stroke="#fff" stroke-miterlimit="10" stroke-width="4"/>
        <circle id="Ellipse_19" data-name="Ellipse 19" cx="2.999" cy="2.999" r="2.999" transform="translate(0 92.783)" fill="none" stroke="#fff" stroke-miterlimit="10" stroke-width="4"/>
        <circle id="Ellipse_20" data-name="Ellipse 20" cx="2.999" cy="2.999" r="2.999" transform="translate(0 121.128)" fill="none" stroke="#fff" stroke-miterlimit="10" stroke-width="4"/>
        <circle id="Ellipse_21" data-name="Ellipse 21" cx="2.999" cy="2.999" r="2.999" transform="translate(8.663 155.084)" fill="none" stroke="#fff" stroke-miterlimit="10" stroke-width="4"/>
        <circle id="Ellipse_22" data-name="Ellipse 22" cx="2.999" cy="2.999" r="2.999" transform="translate(31.982 174.084)" fill="none" stroke="#fff" stroke-miterlimit="10" stroke-width="4"/>
        <circle id="Ellipse_23" data-name="Ellipse 23" cx="2.999" cy="2.999" r="2.999" transform="translate(61.112 189.062)" fill="none" stroke="#fff" stroke-miterlimit="10" stroke-width="4"/>
        <circle id="Ellipse_24" data-name="Ellipse 24" cx="2.999" cy="2.999" r="2.999" transform="translate(87.266 200.389)" fill="none" stroke="#fff" stroke-miterlimit="10" stroke-width="4"/>
        <circle id="Ellipse_25" data-name="Ellipse 25" cx="2.999" cy="2.999" r="2.999" transform="translate(112.17 207.387)" fill="none" stroke="#fff" stroke-miterlimit="10" stroke-width="4"/>
        <circle id="Ellipse_26" data-name="Ellipse 26" cx="2.999" cy="2.999" r="2.999" transform="translate(141.259 210.386)" fill="none" stroke="#fff" stroke-miterlimit="10" stroke-width="4"/>
        <circle id="Ellipse_27" data-name="Ellipse 27" cx="2.999" cy="2.999" r="2.999" transform="translate(169.078 212.836)" fill="none" stroke="#fff" stroke-miterlimit="10" stroke-width="4"/>
        <circle id="Ellipse_28" data-name="Ellipse 28" cx="2.999" cy="2.999" r="2.999" transform="translate(194.232 213.383)" fill="none" stroke="#fff" stroke-miterlimit="10" stroke-width="4"/>
        <circle id="Ellipse_29" data-name="Ellipse 29" cx="2.999" cy="2.999" r="2.999" transform="translate(221.883 212.836)" fill="none" stroke="#fff" stroke-miterlimit="10" stroke-width="4"/>
        <circle id="Ellipse_30" data-name="Ellipse 30" cx="2.999" cy="2.999" r="2.999" transform="translate(249.203 210.386)" fill="none" stroke="#fff" stroke-miterlimit="10" stroke-width="4"/>
        <circle id="Ellipse_31" data-name="Ellipse 31" cx="2.999" cy="2.999" r="2.999" transform="translate(280.185 204.388)" fill="none" stroke="#fff" stroke-miterlimit="10" stroke-width="4"/>
        <circle id="Ellipse_32" data-name="Ellipse 32" cx="2.999" cy="2.999" r="2.999" transform="translate(312.502 201.389)" fill="none" stroke="#fff" stroke-miterlimit="10" stroke-width="4"/>
        <circle id="Ellipse_33" data-name="Ellipse 33" cx="2.999" cy="2.999" r="2.999" transform="translate(346.818 195.06)" fill="none" stroke="#fff" stroke-miterlimit="10" stroke-width="4"/>
        <circle id="Ellipse_34" data-name="Ellipse 34" cx="2.999" cy="2.999" r="2.999" transform="translate(380.134 183.066)" fill="none" stroke="#fff" stroke-miterlimit="10" stroke-width="4"/>
        <circle id="Ellipse_35" data-name="Ellipse 35" cx="2.999" cy="2.999" r="2.999" transform="translate(410.117 174.084)" fill="none" stroke="#fff" stroke-miterlimit="10" stroke-width="4"/>
        <circle id="Ellipse_36" data-name="Ellipse 36" cx="2.999" cy="2.999" r="2.999" transform="translate(432.773 163.739)" fill="none" stroke="#fff" stroke-miterlimit="10" stroke-width="4"/>
        <circle id="Ellipse_37" data-name="Ellipse 37" cx="2.999" cy="2.999" r="2.999" transform="translate(457.092 153.412)" fill="none" stroke="#fff" stroke-miterlimit="10" stroke-width="4"/>
        <circle id="Ellipse_38" data-name="Ellipse 38" cx="2.999" cy="2.999" r="2.999" transform="translate(478.748 141.752)" fill="none" stroke="#fff" stroke-miterlimit="10" stroke-width="4"/>
        <circle id="Ellipse_39" data-name="Ellipse 39" cx="2.999" cy="2.999" r="2.999" transform="translate(505.289 127.665) rotate(-2.199)" fill="none" stroke="#fff" stroke-miterlimit="10" stroke-width="4"/>
        <circle id="Ellipse_40" data-name="Ellipse 40" cx="2.999" cy="2.999" r="2.999" transform="translate(499.291 147.532) rotate(-2.199)" fill="none" stroke="#fff" stroke-miterlimit="10" stroke-width="4"/>
        <circle id="Ellipse_41" data-name="Ellipse 41" cx="2.999" cy="2.999" r="2.999" transform="translate(480.081 174.084)" fill="none" stroke="#fff" stroke-miterlimit="10" stroke-width="4"/>
        <circle id="Ellipse_42" data-name="Ellipse 42" cx="2.999" cy="2.999" r="2.999" transform="matrix(1, -0.02, 0.02, 1, 509.339, 183.125)" fill="none" stroke="#fff" stroke-miterlimit="10" stroke-width="4"/>
        <circle id="Ellipse_43" data-name="Ellipse 43" cx="2.999" cy="2.999" r="2.999" transform="matrix(1, -0.02, 0.02, 1, 539.656, 171.146)" fill="none" stroke="#fff" stroke-miterlimit="10" stroke-width="4"/>
        <circle id="Ellipse_44" data-name="Ellipse 44" cx="2.999" cy="2.999" r="2.999" transform="matrix(1, -0.02, 0.02, 1, 562.312, 160.803)" fill="none" stroke="#fff" stroke-miterlimit="10" stroke-width="4"/>
        <circle id="Ellipse_45" data-name="Ellipse 45" cx="2.999" cy="2.999" r="2.999" transform="translate(582.247 148.012) rotate(-2.199)" fill="none" stroke="#fff" stroke-miterlimit="10" stroke-width="4"/>
        <circle id="Ellipse_46" data-name="Ellipse 46" cx="2.999" cy="2.999" r="2.999" transform="translate(595.908 130.664) rotate(-2.199)" fill="none" stroke="#fff" stroke-miterlimit="10" stroke-width="4"/>
        <circle id="Ellipse_47" data-name="Ellipse 47" cx="2.999" cy="2.999" r="2.999" transform="translate(607.235 108.675) rotate(-2.199)" fill="none" stroke="#fff" stroke-miterlimit="10" stroke-width="4"/>
        <circle id="Ellipse_48" data-name="Ellipse 48" cx="2.999" cy="2.999" r="2.999" transform="matrix(0.995, -0.099, 0.099, 0.995, 613.063, 83.547)" fill="none" stroke="#fff" stroke-miterlimit="10" stroke-width="4"/>
        <circle id="Ellipse_49" data-name="Ellipse 49" cx="2.999" cy="2.999" r="2.999" transform="matrix(0.995, -0.099, 0.099, 0.995, 611.398, 62.483)" fill="none" stroke="#fff" stroke-miterlimit="10" stroke-width="4"/>
        <circle id="Ellipse_50" data-name="Ellipse 50" cx="2.999" cy="2.999" r="2.999" transform="matrix(0.995, -0.099, 0.099, 0.995, 604.068, 37.904)" fill="none" stroke="#fff" stroke-miterlimit="10" stroke-width="4"/>
        <circle id="Ellipse_51" data-name="Ellipse 51" cx="2.999" cy="2.999" r="2.999" transform="matrix(0.995, -0.099, 0.099, 0.995, 585.077, 17.249)" fill="none" stroke="#fff" stroke-miterlimit="10" stroke-width="4"/>
        <circle id="Ellipse_52" data-name="Ellipse 52" cx="2.999" cy="2.999" r="2.999" transform="matrix(0.995, -0.099, 0.099, 0.995, 562.091, 3.588)" fill="none" stroke="#fff" stroke-miterlimit="10" stroke-width="4"/>
        <circle id="Ellipse_53" data-name="Ellipse 53" cx="2.999" cy="2.999" r="2.999" transform="matrix(0.995, -0.099, 0.099, 0.995, 536.437, 0.591)" fill="none" stroke="#fff" stroke-miterlimit="10" stroke-width="4"/>
        <circle id="Ellipse_54" data-name="Ellipse 54" cx="2.999" cy="2.999" r="2.999" transform="matrix(0.995, -0.099, 0.099, 0.995, 509.117, 3.588)" fill="none" stroke="#fff" stroke-miterlimit="10" stroke-width="4"/>
        <circle id="Ellipse_55" data-name="Ellipse 55" cx="2.999" cy="2.999" r="2.999" transform="translate(480.081 12.608)" fill="none" stroke="#fff" stroke-miterlimit="10" stroke-width="4"/>
        <circle id="Ellipse_56" data-name="Ellipse 56" cx="2.999" cy="2.999" r="2.999" transform="translate(454.095 23.935)" fill="none" stroke="#fff" stroke-miterlimit="10" stroke-width="4"/>
        <circle id="Ellipse_57" data-name="Ellipse 57" cx="2.999" cy="2.999" r="2.999" transform="translate(431.44 34.674)" fill="none" stroke="#fff" stroke-miterlimit="10" stroke-width="4"/>
        <circle id="Ellipse_58" data-name="Ellipse 58" cx="2.999" cy="2.999" r="2.999" transform="translate(406.078 45.922)" fill="none" stroke="#fff" stroke-miterlimit="10" stroke-width="4"/>
        <circle id="Ellipse_59" data-name="Ellipse 59" cx="2.999" cy="2.999" r="2.999" transform="translate(381.965 57.792)" fill="none" stroke="#fff" stroke-miterlimit="10" stroke-width="4"/>
        <circle id="Ellipse_60" data-name="Ellipse 60" cx="2.999" cy="2.999" r="2.999" transform="translate(360.603 66.912)" fill="none" stroke="#fff" stroke-miterlimit="10" stroke-width="4"/>
        <circle id="Ellipse_61" data-name="Ellipse 61" cx="2.999" cy="2.999" r="2.999" transform="translate(334.865 75.783)" fill="none" stroke="#fff" stroke-miterlimit="10" stroke-width="4"/>
        <circle id="Ellipse_62" data-name="Ellipse 62" cx="2.999" cy="2.999" r="2.999" transform="translate(308.379 85.841)" fill="none" stroke="#fff" stroke-miterlimit="10" stroke-width="4"/>
        <circle id="Ellipse_63" data-name="Ellipse 63" cx="2.999" cy="2.999" r="2.999" transform="translate(273.415 92.783)" fill="none" stroke="#fff" stroke-miterlimit="10" stroke-width="4"/>
        <circle id="Ellipse_64" data-name="Ellipse 64" cx="2.999" cy="2.999" r="2.999" transform="translate(238.933 97.447)" fill="none" stroke="#fff" stroke-miterlimit="10" stroke-width="4"/>
        <circle id="Ellipse_65" data-name="Ellipse 65" cx="2.999" cy="2.999" r="2.999" transform="translate(202.952 101.277)" fill="none" stroke="#fff" stroke-miterlimit="10" stroke-width="4"/>
        <circle id="Ellipse_66" data-name="Ellipse 66" cx="2.999" cy="2.999" r="2.999" transform="translate(176.133 102.612)" fill="none" stroke="#fff" stroke-miterlimit="10" stroke-width="4"/>
        <circle id="Ellipse_67" data-name="Ellipse 67" cx="2.999" cy="2.999" r="2.999" transform="translate(151.812 102.612)" fill="none" stroke="#fff" stroke-miterlimit="10" stroke-width="4"/>
        <circle id="Ellipse_68" data-name="Ellipse 68" cx="2.999" cy="2.999" r="2.999" transform="translate(123.601 101.277)" fill="none" stroke="#fff" stroke-miterlimit="10" stroke-width="4"/>
      </g>
      <rect id="Rectangle_25" data-name="Rectangle 25" width="650" height="236" fill="rgba(255,255,255,0)"/>
    </g>
  </g>
</svg>
