<?xml version="1.0" encoding="UTF-8"?><svg id="Layer_2" xmlns="http://www.w3.org/2000/svg" viewBox="0 0 245.77 245.65"><defs><style>.cls-1{fill-rule:evenodd;}</style></defs><g id="forfinet_kors"><path id="Path_10" class="cls-1" d="M122.33,12.3c0,1,10.75,13.1,17.05,.61,1.84-3.66,.68-8.54-2.56-11.06-4.86-3.78-13.53-1.52-15.33,4.6-.19,.65-.16,1.85,0,2.83m45.84,19.03c6.15,.29,10.85-4.76,8.41-11.23v-.03c-2.41-6.34-9.96-7.57-14.48-2.14-4.48,5.39-2.1,11.93,4.48,12.91m-97.41,6.49c1,1,1.9,.69,3.03,.82,.62,.07,.37,.03,.97,.18,.7,.17,2.18,.49,2.92,.58s1.55,.04,2.31-.08c1.62-.24,3.22-.79,4.59-1.69s2.52-2.18,3.15-3.7c1.02-2.43,.62-5.36-.86-7.55s-3.94-3.63-6.54-4.06-5.32,.12-7.67,1.33c-1.89,.98-3.59,2.42-4.58,4.31-1.12,2.14-1.2,4.93,.19,6.98,.7,1.03,.49,.88,1.49,1.88m-40.91,13.01c.3,1.32,.95,2.59,2.02,3.73,1.28,1.35,2.74,2.62,4.52,3.17,2.53,.78,5.36-.06,7.5-1.63s3.71-3.77,5.15-6c.68-1.04,1.35-2.17,1.4-3.41,.03-.82-.22-1.62-.5-2.38-.52-1.4-1.18-2.76-2.15-3.89-1.59-1.86-4-2.99-6.44-3.04-6.4-.13-12.89,7.22-11.49,13.46Zm171.29,127.44c1.41-1.59,3.3-2.37,4.85-3.81s2.64-3.01,3.58-4.78c2-3.75,2.98-8,3.57-12.18,3.54-24.75-1.93-50.69-15.15-71.9-15.35-24.63-42.5-42.95-71.53-42.76-16.89,.11-33.38,6.34-47.42,15.73-16.98,11.36-31.12,28.16-35.5,48.11-3.43,15.61-.7,32.08,5.08,46.97,9.1,23.42,26.4,44.21,49.35,54.43,16.03,7.14,34.39,8.68,51.47,4.8,8.66-1.97,17.19-5.22,24.45-10.35M108.34,49.19c2.66-3.22,10.04-2.52,13.92-2.74,3.31-.19,6.59-.73,9.91-.77,7.82-.07,13.63,4.85,20.41,8,4.69,2.17,9.53,3.9,14.18,6.23,6.33,3.17,9.35,6.82,13.63,12.16,1.04,1.29,2.08,2.59,2.87,4.05,1.45,2.67,1.99,5.77,3.42,8.45,1.46,2.75,3.91,4.13,4.19,7.42s-1.26,6.19-4.53,7.13c-11.54,3.32-23.24,6.05-34.69,9.68-4.42,1.4-8.38,4.3-12.95,5.28-6.22,1.34-5.94-2.85-8.1-7.55-5.74-12.51-11.55-24.99-17.41-37.44-2.05-4.35-8.61-15.36-4.85-19.91Zm-48.02,87.11c-2,0-6.97,1.05-8.01-.16s-1.37-2.84-1.64-4.41c-1.96-11.45-2.51-23.36,.46-34.59,2.97-11.23,9.8-21.78,19.94-27.45,6.99-3.91,15.54-5.6,20.83-11.61,5.63,4.31,9.3,10.65,12.55,16.95,6.41,12.43,11.77,25.37,16.63,38.48,.44,1.19,.88,2.51,.46,3.7-.55,1.56-2.31,2.29-3.87,2.82m35.21,71.75c-1.38,5.06-13.53,7.04-17.82,8.19-7.8,2.09-16.14,1.98-23.99,.19-10.64-2.42-20.43-7.81-29.07-14.48-9.59-7.4-21.41-19.24-22.17-32.22-.57-9.85,13.48-10.16,16.48-11.16,2-1,7.34-1.73,8-2,11.34-4.65,26.72-12.24,39.38-8.19,3.76,1.2,6.72,4.11,8.33,7.71,7.65,17.07,13.8,34.69,20.87,51.98m23.76-11.05c-7.03,4.85-13.61,6.07-17.85-2.52-7.89-16-14.87-32.46-20.89-49.26-.55-1.52-1.09-3.16-.71-4.73,.71-2.9,4.06-4.14,6.94-4.91,15.89-4.25,31.89-8.06,47.99-11.43,1.24-.26,2.66-.48,3.66,.29,.72,.55,1.02,1.47,1.29,2.33,2.92,9.34,5.7,18.9,5.67,28.68-.01,6.18-1.25,12.49-4.07,18.01-2.47,4.82-7.62,11.71-12.13,14.77m6.76-125.67c-2,2,1.82,9.32,2.12,9.76,3.25,4.78,10.49,5.52,14.88,2.24l1-1c1-1,1.43-4.98,.88-8.39-.19-1.16-.47-2.33-1.1-3.33-.96-1.53-2.62-2.48-4.3-3.14-4.35-1.7-9.83-1.45-12.6,2.77m-59.13,45.84c3.09,2.29,6.31,4.08,10.3,2.88,8.05-2.44,8.35-12.53,3.45-18.05-.73-.83-1.6-1.6-2.67-1.88-.9-.24-1.86-.11-2.77,.08-6.97,1.46-17.33,10.4-8.31,16.98m-133.84,.28c2.01,3.3,6.65,6.82,10.76,5.67,1.65-.46,2.95-1.76,3.93-3.17,3.3-4.74,5.13-13.91-2.34-15.61-4.73-1.08-10.04,1.74-11.8,6.26-.44,2.04-1.43,4.83-.54,6.86m232.09,7.97c-1-10-9.82-11.8-15.41-7.37-3.34,2.65-4.61,7.71-2.68,11.51,2.04,4.02,7.39,5.77,11.49,3.96,1.81-.8,6.6-5.09,6.25-6.44m-109.78-10.19h.28m-40.47,22.07c3.68,4.25,12.32,.46,13.32-.54,.19-.02,.41-.16,.64-.35,.9-.77,1.38-1.91,1.43-3.09,.07-1.48,.17-3.65,.17-4.2,.03-6.2-5.37-10.49-11.49-9.84-4.9,.52-9.18,4.77-8.9,9.84,.23,4.08,3.56,5.03,4.84,8.16m-65.08,4.53c-.1-2.56-.51-5.63-2.39-7.54-1.25-1.27-3.08-1.88-4.86-1.84s-3.51,.7-5,1.68c-2.73,1.79-4.73,4.68-5.43,7.87-.61,2.79-.16,5.97,1.84,8.01,1.84,1.88,4.8,2.49,7.28,1.63,.22-.08,5.95-1.87,6.95-3.87m226.35,9.49c-2.67-3.13-8.05-3.29-11.32-1.06-3.09,2.11-4.52,6.46-3.07,9.91,.95,2.28,3,4.02,5.34,4.84,4,1.4,10.71-2.18,11.71-6.18,0,0,1-3,0-4m-61.87,4.57c-.13-.57,.04-1.91-.28-2.82-1.53-4.34-8.31-4.97-12.1-4.09-3.42,.78-6.55,3.62-6.72,7.12-.11,2.16,.89,4.26,2.34,5.87,3.46,3.85,7.86,4.71,11.95,2.06,.86-.56,4.68-4.71,4.68-6.71m-61.99,18.09c.1-2.82-1.18-5.85-2.96-7.99-3.45-4.17-8.95-4.07-13.18-1-2.6,1.88-4.39,4.85-4.84,8.02-.7,4.84,2.16,10.19,6.84,11.6,2.77,.84,5.85,.28,8.38-1.12,2.7-1.49,5.8-4.17,6.43-7.3,.17-.86-.08-1.87-.83-2.32m-83.11-4.66c.32-1.14-1.09-2.11-1.94-2.93-1.37-1.33-3.2-2.16-5.09-2.46-3.63-.58-7.52,.83-9.92,3.62s-3.19,6.87-1.99,10.35c.84,2.42,2.64,4.54,4.99,5.55s5.25,.8,7.31-.72c1.16-.85,2.62-1.67,3.05-3.04m206.84,1.31c0-3.58-4.79-7.61-8.25-6.95-1.93,.36-3.6,1.58-4.95,3-1.49,1.57-2.68,3.45-3.19,5.55s-.29,4.42,.85,6.25c1.23,2,3.49,3.28,5.83,3.47s4.72-.68,6.48-2.23c1.81-1.58,3.22-4.01,3.37-6.42m-180.84,27.43c-.3-2.11-1.2-4.58-3.09-5.6-4.19-2.25-9.41-3.79-13.59-1.51-3.69,2.01-5.43,6.81-4.29,10.86,1.59,5.67,8.11,9.38,13.81,8.14,1.21-.26,2.35-.78,3.48-1.29,1.31-.59,4.38-2.72,4.38-4.72m152.49-7.83c-4.76-9.18-19.57-2.4-19.17,6.81,.34,7.68,9.28,12.32,15.54,7.52,3.84-2.94,5.9-9.39,3.84-13.88-.07-.15-.14-.3-.22-.45Zm-25.49,16.83c-4-4-13.69-5.81-18.54-.39-3.69,4.13-4.31,11.48-.19,15.53,9.7,9.55,28.34-8.29,18.73-15.15m-89,27c7-4,4-14,2-16-.38-.38-1.4-.91-1.94-.99-1.24-.18-2.33-.86-3.46-1.38-4.13-1.9-9.84-1.58-12.85,2.17-1.73,2.16-2.28,5.08-2.11,7.84,.52,8.43,9.36,13.35,16.84,9.1m51.69-5.54c-2.1-10.36-10.22-10.11-18.12-4.74-2.26,1.54-4.48,3.56-4.93,6.26-.45,2.7,1.07,5.45,3.28,7.06s4.99,2.24,7.71,2.47c2.38,.2,4.85,.1,7.07-.77,4.4-1.72,5.96-5.88,4.98-10.29"/></g></svg>