<svg xmlns="http://www.w3.org/2000/svg" width="188.021" height="224.61" viewBox="0 0 188.021 224.61">
  <g id="sun_worship" transform="translate(-1410.711 -4552.658)">
    <g id="_2_guys" data-name="2 guys" transform="translate(1478.384 4647.015)">
      <g id="Group_23" data-name="Group 23" transform="translate(0 0)">
        <path id="Path_15" data-name="Path 15" d="M578.2,361.151c-.319-1.828-1.954-2.6-3.4-3.408-3.088-1.724-6.013-4.477-6.291-8a16.519,16.519,0,0,1,.793-5.118,40.973,40.973,0,0,0-.476-20.984,9.406,9.406,0,0,0-1.646-3.514,8.6,8.6,0,0,0-4.029-2.388,22.164,22.164,0,0,0-10.075-.837c-2.051.306-4.09.9-6.158.752-2.826-.206-5.659-2.941-4.893-5.928a25.589,25.589,0,0,1,.985-2.392c.681-1.851,1.1-3.752,1.8-5.6.31-.812,1.424-3.624-.593-2.832a3.252,3.252,0,0,0-1.184.841c-.877.949-2.433,1.716-3.477.584a9.967,9.967,0,0,1-1.847-3.346c-1.481,0-3.631,1.755-2.569,3.356l.579.9c.689,1.2,2.2,1.546,1.383,2.9-.784,1.309.358,3.49.891,4.727.758,1.76,1.323,2.66,1.283,4.8-.032,1.74-.851,2.5-2.527,2.671l-1.941.3c-2.938-2.375-6.116-4.437-8.51-7.412a13.259,13.259,0,0,1-3.241-9.429,12.77,12.77,0,0,1,2.883-6.5c.211-.267,4.068-5.146,5.74-5.561a1.393,1.393,0,0,0,.84-.561,2.305,2.305,0,0,0,.322-.607,2.583,2.583,0,0,0,.057-2.01c-1.3-2.349-9.521,8.1-10.366,9.576-2.139,3.74-3.021,8.464-1.233,12.384,2.669,5.851,10.394,8.46,12.218,14.627.73,2.468.362,5.106.394,7.679.068,5.545,2.012,10.881,2.851,16.362,1.167,7.623.183,15.389-.676,23.052a17.762,17.762,0,0,0,.115,6.713c.546,1.971,1.744,3.69,2.57,5.561,2.47,5.6,1.452,12.042.391,18.067-.54,3.066-1.79,6.835-4.886,7.154-.611.063-1.389.06-1.565.71a.965.965,0,0,0,.324.972c2.111,1.805,5.9,3.939,7.673,1.091a3.958,3.958,0,0,0,.488-1.247l2.9-13.233c1.084-4.947,2.092-10.437-.449-14.818-1.218-2.1-3.222-3.877-3.531-6.284-.289-2.251,1-4.357,1.9-6.441a20.317,20.317,0,0,0,1.195-12.288c-.273-1.255-.273-3.116,1.064-3.167a1.61,1.61,0,0,1,.6.107l4.292,1.551a4.056,4.056,0,0,1,1.564.843,3.49,3.49,0,0,1,.776,1.526c1.53,5.3-.58,10.974-.006,16.458.555,5.305,3.577,10.071,4.45,15.333.911,5.491-.573,11.065-2.045,16.433-.791,2.888-2.226,6.342-5.209,6.594-.312,2.127,2.545,3.56,4.552,2.789s3.209-2.783,4.258-4.659c2.89-5.166,5.86-10.621,5.893-16.541.031-5.565-2.575-10.834-5.854-15.33a6.6,6.6,0,0,1-1.4-7.316,48.411,48.411,0,0,0,.288-20.571c-.212-1.041-.161-2.551,1-2.563a1.35,1.35,0,0,1,.622.16,46.84,46.84,0,0,1,16.294,13.822c.611.827,1.379,1.772,2.449,1.59a1.781,1.781,0,0,0,1.389-2.094m-10.586-20.185-.423,2.649c-.215,1.35-.588,3.475-1.63,4.457-1.639,1.543-2.415.2-3.733-.99-2.745-2.482-6.728-3.358-7.709-7.391a28.31,28.31,0,0,1-.7-4.814c-.074-1.444.08-2.9-.091-4.334-.234-1.965-1.152-4.015-1.437-6.037-.018-.012-.04-.033-.1-.081l.094.034a5.908,5.908,0,0,1,.554-3.716c.54-1.008,1.834-1.306,2.976-1.372,4.719-.27,10.44,1.458,11.581,6.625l.346,1.566c.194.877.387,1.756.52,2.644a35.933,35.933,0,0,1-.246,10.759M460.577,328.882c-1.305.22-2.982,1.015-2.655,2.3l4.11.088a2.076,2.076,0,0,1,1.211.278,1.933,1.933,0,0,1,.508,1.765c-.325,3.878-2.542,7.828-1.123,11.452,1.16,2.961,4.357,4.552,6.273,7.089,2.557,3.386,2.552,8.018,2.119,12.238-.352,3.425-1.126,7.195-3.911,9.218-2.606,1.893-6.62,1.964-8.219,4.76a1.367,1.367,0,0,0-.214,1.069c.3.918,1.675.584,2.5.075l8.052-4.991a2.531,2.531,0,0,1,1.313-.5c.96.013,1.557,1.064,1.742,2.006.531,2.7-.617,5.513-.1,8.213.491,2.581,2.46,4.817,2.418,7.443-.037,2.394-1.727,4.4-2.638,6.614a10.626,10.626,0,0,0-.382,6.916c.447,1.555,1.247,2.992,1.678,4.553a5.188,5.188,0,0,1-.594,4.632c-.363.445-.875.913-.756,1.475.129.607.887.8,1.506.853,1.723.138,3.765-.1,4.651-1.58.837-1.4.217-3.174-.241-4.742a21.107,21.107,0,0,1-.647-8.742c.678-4.949,3.116-9.741,2.485-14.7-.277-2.176-1.138-4.235-1.539-6.391s-.255-4.6,1.211-6.231c3.358,7.391,3.293,15.876,2.282,23.93a37.824,37.824,0,0,0-.528,8.951c.339,2.978,1.649,6,4.152,7.649,1.41.927,3.755,1.083,4.39-.48.714-1.759-1.34-3.251-2.249-4.466-1.192-1.592-1.065-3.148-.869-5.089a4.853,4.853,0,0,0,.115-1.858l.3-2.493a3.258,3.258,0,0,0,.254-1.265c-.03-.252-.14-.488-.175-.74-.24-1.725.614-3.349.839-5.028a17.26,17.26,0,0,0-.367-5.691c-.738-3.618-2.154-7.071-2.708-10.731a5,5,0,0,1,.474-3.627c.753-1.076,2.131-1.469,3.38-1.877a28.577,28.577,0,0,0,7.9-4.036c.8-.584,1.486-2.013.547-2.338a1.423,1.423,0,0,0-1,.162l-8.505,3.66a5.125,5.125,0,0,1-2.815.615c-1.532-.262-2.47-1.814-3-3.273-1.943-5.307-1.236-11.157-.882-16.8s.2-11.728-3.093-16.323c-.45-.628-.973-1.441-.572-2.1a1.871,1.871,0,0,1,1.5-.647c13.71-1.331,28.239.5,40.681-5.411,1.077-.511,2.307-1.458,1.986-2.606-19.02,7.59-40.591,3.34-60.783,6.752m18.087,16.565c.315,1.886-1.933,2.159-3.365,2.5a7.9,7.9,0,0,1-.1-4.3c.305-.992,1.377-2.137.985-3.272a2.555,2.555,0,0,0-1.172-1.179,6.5,6.5,0,0,0-1.833-.907c-1.67-.423-4.179,1.472-4.479,3.146-.212,1.189.034,2.932,1.043,3.652a4.652,4.652,0,0,1,1.459,1.238c.422.715,1.692,4.353-.189,4.379-.513.007-2.074-2.616-2.7-3.044a8.011,8.011,0,0,1-3.123-4.4,15.636,15.636,0,0,1,2.4-11.438,1.549,1.549,0,0,1,.463-.439c1.375-.879,4.458-.534,5.082.871.815,1.835,2.22,3.343,3.2,5.1a24.7,24.7,0,0,1,2.329,8.094m73.222-20.987c0,.015,0,.031.007.047a1.681,1.681,0,0,0,.23.085c-.146-.115-.075-.076-.237-.132" transform="translate(-457.881 -286.204)" fill="#fff" fill-rule="evenodd"/>
      </g>
    </g>
    <g id="Hjulkors" transform="translate(1410.711 4552.658)">
      <g id="Group_22" data-name="Group 22" transform="translate(0 0)">
        <path id="Path_16" data-name="Path 16" d="M48.729,201.725c0,.4,4.284,5.22,6.792.241A3.675,3.675,0,0,0,54.5,197.56c-1.934-1.505-5.391-.605-6.105,1.832a3,3,0,0,0,0,1.127M66.655,208.1A3.208,3.208,0,0,0,70,203.623l0-.011a3.268,3.268,0,0,0-5.765-.85c-1.785,2.147-.837,4.753,1.785,5.143m-38.8,2.584c.4.4.756.277,1.207.325a1.51,1.51,0,0,1,.387.074c.278.069.87.2,1.161.229a3.557,3.557,0,0,0,.92-.031,4.545,4.545,0,0,0,1.828-.673,3.345,3.345,0,0,0,1.255-1.473,3.245,3.245,0,0,0-.341-3.007,3.919,3.919,0,0,0-2.605-1.618,4.969,4.969,0,0,0-3.054.529,4.193,4.193,0,0,0-1.824,1.715,2.765,2.765,0,0,0,.074,2.78,3.013,3.013,0,0,0,.594.749m-16.3,5.181a3.138,3.138,0,0,0,.806,1.486,4.361,4.361,0,0,0,1.8,1.263,3.466,3.466,0,0,0,2.986-.649,8.712,8.712,0,0,0,2.053-2.391,2.8,2.8,0,0,0,.557-1.358,2.5,2.5,0,0,0-.2-.949,5.054,5.054,0,0,0-.858-1.551,3.523,3.523,0,0,0-2.566-1.211c-2.547-.052-5.135,2.876-4.579,5.36m68.235,50.767c.562-.631,1.317-.946,1.931-1.517a7.175,7.175,0,0,0,1.425-1.9,14.716,14.716,0,0,0,1.424-4.85A43.142,43.142,0,0,0,77.5,229.124c-6.114-9.812-16.931-17.11-28.492-17.032a34.874,34.874,0,0,0-18.889,6.267c-6.763,4.524-12.4,11.216-14.143,19.163C14.611,243.739,15.7,250.3,18,256.234c3.624,9.329,10.515,17.61,19.658,21.682a32.874,32.874,0,0,0,20.5,1.91A27.307,27.307,0,0,0,67.9,275.7M43.158,216.42c1.06-1.283,4-1,5.543-1.092,1.317-.074,2.626-.293,3.946-.305,3.114-.03,5.428,1.933,8.132,3.187,1.867.866,3.8,1.553,5.647,2.48,2.521,1.264,3.724,2.718,5.431,4.845A11.05,11.05,0,0,1,73,227.15c.578,1.065.793,2.3,1.361,3.367.581,1.095,1.559,1.644,1.67,2.955a2.557,2.557,0,0,1-1.8,2.841c-4.6,1.323-9.258,2.409-13.818,3.857-1.762.559-3.339,1.711-5.157,2.1-2.476.533-2.365-1.134-3.226-3.008q-3.432-7.474-6.934-14.915c-.817-1.734-3.429-6.119-1.934-7.93m-19.127,34.7c-.8,0-2.775.418-3.19-.063a3.527,3.527,0,0,1-.652-1.757,32.6,32.6,0,0,1,.182-13.779,17.522,17.522,0,0,1,7.943-10.936c2.786-1.557,6.189-2.231,8.3-4.626a19.287,19.287,0,0,1,5,6.752,137.7,137.7,0,0,1,6.625,15.33,2.222,2.222,0,0,1,.184,1.476c-.219.622-.919.911-1.544,1.123m14.027,28.58c-.548,2.015-5.391,2.8-7.1,3.262a19.982,19.982,0,0,1-9.556.077,30.235,30.235,0,0,1-11.582-5.768c-3.819-2.946-8.53-7.666-8.83-12.835-.227-3.923,5.369-4.049,6.564-4.447a23.146,23.146,0,0,1,3.187-.8c4.518-1.851,10.645-4.877,15.686-3.264a5.56,5.56,0,0,1,3.32,3.072c3.049,6.8,5.5,13.82,8.314,20.705m9.467-4.4c-2.8,1.932-5.423,2.416-7.111-1A186.568,186.568,0,0,1,54.946,248.2a3.344,3.344,0,0,1-.282-1.883c.281-1.154,1.615-1.65,2.763-1.958q9.492-2.539,19.115-4.553a1.341,1.341,0,0,1,1.974,1.043c1.164,3.72,2.269,7.527,2.26,11.425a15.9,15.9,0,0,1-1.622,7.176,18.162,18.162,0,0,1-4.834,5.883m2.691-50.062c-.8.8.724,3.713.843,3.888a4.307,4.307,0,0,0,5.929.892l.4-.4c.4-.4.569-1.985.352-3.342a3.511,3.511,0,0,0-.437-1.327,3.424,3.424,0,0,0-1.713-1.252c-1.732-.678-3.915-.579-5.021,1.1m-23.556,18.26c1.232.912,2.514,1.627,4.1,1.146,3.207-.971,3.325-4.99,1.374-7.189a2.276,2.276,0,0,0-1.065-.75,2.393,2.393,0,0,0-1.1.031c-2.776.582-6.905,4.141-3.309,6.763m-53.314.112c.8,1.313,2.647,2.716,4.285,2.258A3.011,3.011,0,0,0,6.342,234.2c1.316-1.888,2.044-5.541-.931-6.217a4.215,4.215,0,0,0-4.7,2.493,4.834,4.834,0,0,0-.216,2.731m92.452,3.174c-.4-3.984-3.912-4.7-6.139-2.937a3.84,3.84,0,0,0-1.069,4.585,3.632,3.632,0,0,0,4.578,1.576c.72-.318,2.63-2.029,2.489-2.567M49.074,232.98h.113m-16.119,8.793c1.466,1.694,4.906.185,5.3-.214a.523.523,0,0,0,.254-.139,1.714,1.714,0,0,0,.57-1.23c.027-.59.066-1.453.067-1.675a3.988,3.988,0,0,0-4.577-3.918,3.9,3.9,0,0,0-3.544,3.921c.09,1.623,1.42,2,1.927,3.253M7.143,243.576a4.517,4.517,0,0,0-.952-3,2.635,2.635,0,0,0-1.934-.733,3.864,3.864,0,0,0-1.991.669A5.1,5.1,0,0,0,.1,243.643a3.509,3.509,0,0,0,.732,3.19,2.846,2.846,0,0,0,2.9.651c.089-.031,2.371-.745,2.769-1.542M96.67,249.72a3.585,3.585,0,0,0-4.51-.421,3.377,3.377,0,0,0-1.224,3.95,3.579,3.579,0,0,0,2.125,1.927c1.593.559,4.266-.868,4.664-2.462,0,0,.4-1.2,0-1.593m-24.645,1.819a6.9,6.9,0,0,0-.111-1.122c-.611-1.729-3.309-1.978-4.82-1.631a3.012,3.012,0,0,0-1.747,5.175,3.481,3.481,0,0,0,4.76.821c.344-.223,1.865-1.876,1.865-2.673m-24.692,7.2a4.987,4.987,0,0,0-1.177-3.184,3.732,3.732,0,0,0-5.252-.4,4.849,4.849,0,0,0-1.929,3.2A4.254,4.254,0,0,0,42.7,264.95a4.4,4.4,0,0,0,3.339-.445A4.961,4.961,0,0,0,48.6,261.6a.878.878,0,0,0-.332-.924m-33.1-1.855c.126-.453-.435-.839-.772-1.166a3.771,3.771,0,0,0-2.028-.979,4.39,4.39,0,0,0-3.95,1.441,4.3,4.3,0,0,0-.792,4.122,3.717,3.717,0,0,0,1.989,2.209,3.012,3.012,0,0,0,2.912-.287c.461-.339,1.044-.664,1.213-1.21m82.393.522a3.236,3.236,0,0,0-3.285-2.77,3.78,3.78,0,0,0-1.973,1.2,4.986,4.986,0,0,0-1.271,2.212,3.3,3.3,0,0,0,.337,2.491,3.039,3.039,0,0,0,2.322,1.383,3.56,3.56,0,0,0,2.583-.886,3.911,3.911,0,0,0,1.344-2.559M24.152,275.464a2.97,2.97,0,0,0-1.231-2.23c-1.668-.9-3.75-1.511-5.412-.6a3.854,3.854,0,0,0-1.711,4.327,4.845,4.845,0,0,0,5.5,3.244,7.01,7.01,0,0,0,1.387-.514c.52-.236,1.743-1.082,1.743-1.879m60.744-3.117c-1.9-3.656-7.8-.957-7.635,2.713a3.9,3.9,0,0,0,6.192,2.994,4.973,4.973,0,0,0,1.53-5.528c-.028-.061-.057-.121-.087-.178m-10.154,6.7c-1.593-1.593-5.455-2.314-7.385-.153-1.47,1.646-1.717,4.572-.077,6.187,3.866,3.806,11.288-3.3,7.462-6.034M39.567,292.15c2.788-1.593,1.593-5.577.8-6.374a1.87,1.87,0,0,0-.771-.394,5.242,5.242,0,0,1-1.38-.55,4.344,4.344,0,0,0-5.118.866,4.539,4.539,0,0,0-.84,3.125,4.443,4.443,0,0,0,6.71,3.624m20.59-2.206c-.835-4.128-4.072-4.027-7.217-1.886a4.107,4.107,0,0,0-1.963,2.492,3.019,3.019,0,0,0,1.306,2.814,6.006,6.006,0,0,0,3.072.984,6.309,6.309,0,0,0,2.818-.306,3.333,3.333,0,0,0,1.983-4.1" transform="translate(0 -196.824)" fill="#fff" fill-rule="evenodd"/>
      </g>
    </g>
  </g>
</svg>
